<?xml version="1.0" encoding="utf-8"?>
<!-- Generator: Adobe Illustrator 22.1.0, SVG Export Plug-In . SVG Version: 6.00 Build 0)  -->
<svg version="1.1" id="Capa_1" xmlns="http://www.w3.org/2000/svg" xmlns:xlink="http://www.w3.org/1999/xlink" x="0px" y="0px"
	 viewBox="0 0 480 480" style="enable-background:new 0 0 480 480;" xml:space="preserve">
<style type="text/css">
	.st0{fill:#006DFF;}
	.st1{fill:#FFFFFF;}
</style>
<circle class="st0" cx="240" cy="239.8" r="236.7"/>
<g>
	<g id="List">
		<path class="st1" d="M196.7,142.6l204.8,0.2c6,0,10.8-4.8,10.8-10.8c0-6-4.8-10.8-10.8-10.8l-204.8-0.2c-6,0-10.8,4.8-10.8,10.8
			C185.9,137.8,190.8,142.6,196.7,142.6z"/>
		<path class="st1" d="M401.7,229l-204.8-0.2c-6,0-10.8,4.8-10.8,10.8c0,6,4.8,10.8,10.8,10.8l204.8,0.2c6,0,10.8-4.8,10.8-10.8
			S407.7,229,401.7,229z"/>
		<path class="st1" d="M401.7,336.8l-204.8-0.2c-6,0-10.8,4.8-10.8,10.8s4.8,10.8,10.8,10.8l204.8,0.2c6,0,10.8-4.8,10.8-10.8
			C412.5,341.6,407.7,336.8,401.7,336.8z"/>
		<path class="st1" d="M110.6,89.1c-23.8,0-43,19.3-43,43s19.3,43,43,43s43-19.3,43-43S134.3,89.1,110.6,89.1z M110.5,153.6
			c-12.1,0-21.8-9.4-21.8-21.6s9.7-21.6,21.8-21.6S132,120,132,132.1S122.6,153.6,110.5,153.6z"/>
		<path class="st1" d="M110.6,196.9c-23.8,0-43,19.3-43,43s19.3,43,43,43s43-19.3,43-43S134.3,196.9,110.6,196.9z M110.5,261.4
			c-12.1,0-21.8-9.4-21.8-21.6c0-12.1,9.7-21.6,21.8-21.6s21.6,9.4,21.6,21.6C132,252,122.6,261.4,110.5,261.4z"/>
		<path class="st1" d="M110.6,304.4c-23.8,0-43,19.3-43,43s19.3,43,43,43s43-19.3,43-43S134.3,304.4,110.6,304.4z M110.5,369
			c-12.1,0-21.8-9.4-21.8-21.6c0-12.1,9.7-21.6,21.8-21.6s21.6,9.4,21.6,21.6C132,359.6,122.6,369,110.5,369z"/>
	</g>
</g>
</svg>
