<?xml version="1.0" encoding="utf-8"?>
<!-- Generator: Adobe Illustrator 21.1.0, SVG Export Plug-In . SVG Version: 6.00 Build 0)  -->
<svg version="1.1" id="Capa_1" xmlns="http://www.w3.org/2000/svg" xmlns:xlink="http://www.w3.org/1999/xlink" x="0px" y="0px"
	 viewBox="0 0 85 85" style="enable-background:new 0 0 85 85;" xml:space="preserve">
<style type="text/css">
	.st0{fill:#006DFF;}
	.st1{fill:none;stroke:#FFFFFF;stroke-width:1.5729;stroke-miterlimit:10;}
	.st2{fill:none;stroke:#FFFFFF;stroke-width:1.3841;stroke-miterlimit:10;}
	.st3{fill:#FFFFFF;}
</style>
<g>
	<rect class="st0" width="85" height="85"/>
	<g>
		<g>
			<rect x="33.3" y="19.4" class="st1" width="18.3" height="23.5"/>
		</g>
		<g>
			<line class="st1" x1="43.3" y1="25.2" x2="48" y2="25.2"/>
			<line class="st1" x1="43.3" y1="37" x2="48" y2="37"/>
			<line class="st1" x1="43.3" y1="31.4" x2="48" y2="31.4"/>
			<rect x="37" y="29.6" class="st2" width="3" height="3"/>
			<rect x="37" y="23.7" class="st2" width="3" height="3"/>
			<rect x="37" y="35.6" class="st2" width="3" height="3"/>
		</g>
	</g>
	<g>
		<path class="st3" d="M18.8,52.6v3.3h-0.5L18,55.1c-0.4,0.6-1,0.8-1.7,0.8c-0.8,0-1.5-0.3-1.9-0.9s-0.7-1.4-0.7-2.3
			c0-1,0.2-1.8,0.7-2.4c0.5-0.6,1.2-1,2-1c1.2,0,1.9,0.6,2.3,1.8l-0.8,0.2c-0.1-0.5-0.3-0.8-0.6-1c-0.3-0.2-0.6-0.3-1-0.3
			c-0.6,0-1.1,0.3-1.4,0.8s-0.4,1.1-0.4,1.9c0,0.8,0.2,1.5,0.5,1.9s0.8,0.7,1.4,0.7c0.4,0,0.8-0.1,1.1-0.4c0.3-0.3,0.4-0.7,0.4-1.2
			c0-0.1,0-0.2,0-0.3h-1.6v-0.7H18.8z"/>
		<path class="st3" d="M23.2,54.4l0.7,0.1c-0.1,0.4-0.4,0.7-0.7,1c-0.4,0.3-0.8,0.4-1.3,0.4c-0.6,0-1.2-0.2-1.6-0.7
			c-0.4-0.5-0.6-1-0.6-1.8c0-0.7,0.2-1.3,0.6-1.8c0.4-0.5,0.9-0.7,1.5-0.7c0.6,0,1.1,0.2,1.5,0.6c0.4,0.4,0.6,1.1,0.6,1.9h-3.4
			c0,0.7,0.1,1.2,0.4,1.4c0.3,0.2,0.6,0.4,0.9,0.4C22.6,55.3,23,55,23.2,54.4z M23.2,52.9c0-0.3,0-0.5-0.1-0.7
			c-0.1-0.2-0.2-0.4-0.4-0.5c-0.2-0.1-0.4-0.2-0.7-0.2c-0.4,0-0.7,0.1-0.9,0.4s-0.4,0.6-0.4,1H23.2z"/>
		<path class="st3" d="M28.8,55.8h-0.7v-3c0-0.4-0.1-0.7-0.3-0.9c-0.2-0.2-0.4-0.3-0.7-0.3c-0.4,0-0.7,0.1-0.9,0.4s-0.4,0.7-0.4,1.2
			v2.6h-0.7v-4.7h0.7v0.9c0.4-0.7,0.9-1,1.5-1c0.3,0,0.6,0.1,0.9,0.3c0.2,0.2,0.4,0.4,0.5,0.6c0.1,0.2,0.1,0.6,0.1,1.2V55.8z"/>
		<path class="st3" d="M33.3,54.4l0.7,0.1c-0.1,0.4-0.4,0.7-0.7,1c-0.4,0.3-0.8,0.4-1.3,0.4c-0.6,0-1.2-0.2-1.6-0.7
			c-0.4-0.5-0.6-1-0.6-1.8c0-0.7,0.2-1.3,0.6-1.8c0.4-0.5,0.9-0.7,1.5-0.7c0.6,0,1.1,0.2,1.5,0.6c0.4,0.4,0.6,1.1,0.6,1.9h-3.4
			c0,0.7,0.1,1.2,0.4,1.4c0.3,0.2,0.6,0.4,0.9,0.4C32.7,55.3,33.1,55,33.3,54.4z M33.3,52.9c0-0.3,0-0.5-0.1-0.7
			c-0.1-0.2-0.2-0.4-0.4-0.5c-0.2-0.1-0.4-0.2-0.7-0.2c-0.4,0-0.7,0.1-0.9,0.4s-0.4,0.6-0.4,1H33.3z"/>
		<path class="st3" d="M35.9,55.8h-0.7v-4.7h0.6v1.1c0.2-0.5,0.5-0.9,0.7-1s0.5-0.2,0.7-0.2c0.1,0,0.2,0,0.3,0v0.7h-0.1
			c-0.4,0-0.7,0.1-1,0.4c-0.3,0.3-0.4,0.7-0.4,1.2V55.8z"/>
		<path class="st3" d="M42,55.8h-0.7c0-0.1-0.1-0.4-0.1-0.8c-0.3,0.6-0.9,1-1.6,1c-0.5,0-0.9-0.1-1.2-0.4c-0.3-0.3-0.4-0.6-0.4-1
			c0-0.5,0.2-0.9,0.6-1.2c0.4-0.3,1.1-0.5,2-0.5c0.1,0,0.3,0,0.6,0c0-0.4,0-0.6-0.1-0.8c-0.1-0.2-0.2-0.3-0.4-0.4s-0.4-0.1-0.7-0.1
			c-0.7,0-1.2,0.3-1.3,0.8L38,52.2c0.2-0.9,0.9-1.3,2.1-1.3c0.6,0,1.1,0.1,1.4,0.4s0.4,0.8,0.4,1.5v2C41.9,55.2,41.9,55.5,42,55.8z
			 M41.2,53.4c-0.3,0-0.5,0-0.7,0c-0.6,0-1,0.1-1.3,0.3c-0.3,0.2-0.5,0.5-0.5,0.8c0,0.2,0.1,0.4,0.3,0.6s0.4,0.2,0.7,0.2
			c0.4,0,0.8-0.2,1.1-0.5c0.3-0.3,0.4-0.7,0.4-1.1C41.2,53.6,41.2,53.5,41.2,53.4z"/>
		<path class="st3" d="M46.1,54.1l0.7,0.1c-0.1,0.5-0.3,0.9-0.6,1.2c-0.3,0.3-0.7,0.4-1.2,0.4c-0.6,0-1.1-0.2-1.5-0.7
			S43,54.1,43,53.4c0-0.7,0.2-1.3,0.5-1.8c0.4-0.5,0.8-0.7,1.5-0.7c0.5,0,0.9,0.2,1.2,0.5c0.3,0.3,0.5,0.7,0.6,1.2l-0.7,0.1
			c-0.1-0.8-0.5-1.2-1.1-1.2c-0.4,0-0.7,0.2-0.9,0.5c-0.2,0.3-0.3,0.8-0.3,1.3c0,0.6,0.1,1.1,0.3,1.4s0.5,0.5,0.9,0.5
			C45.6,55.3,45.9,54.9,46.1,54.1z"/>
		<path class="st3" d="M48.5,49.4v0.8h-0.8v-0.8H48.5z M48.5,51.1v4.7h-0.7v-4.7H48.5z"/>
		<path class="st3" d="M51.6,55.9c-0.6,0-1.1-0.2-1.5-0.7s-0.5-1.1-0.5-1.8c0-0.7,0.2-1.3,0.6-1.8c0.4-0.4,0.9-0.7,1.5-0.7
			c0.6,0,1.2,0.2,1.5,0.7c0.4,0.5,0.6,1.1,0.6,1.8c0,0.7-0.2,1.3-0.6,1.8C52.8,55.7,52.3,55.9,51.6,55.9z M51.7,55.3
			c0.4,0,0.7-0.2,0.9-0.5c0.3-0.3,0.4-0.8,0.4-1.4c0-0.6-0.1-1.1-0.4-1.4s-0.6-0.4-0.9-0.4c-0.4,0-0.7,0.1-0.9,0.4
			c-0.3,0.3-0.4,0.8-0.4,1.4c0,0.7,0.1,1.2,0.4,1.5C51,55.1,51.3,55.3,51.7,55.3z M53,49.5l-1.9,0.9L50.9,50l1.8-1.1L53,49.5z"/>
		<path class="st3" d="M58.6,55.8h-0.7v-3c0-0.4-0.1-0.7-0.3-0.9c-0.2-0.2-0.4-0.3-0.7-0.3c-0.4,0-0.7,0.1-0.9,0.4s-0.4,0.7-0.4,1.2
			v2.6h-0.7v-4.7h0.7v0.9c0.4-0.7,0.9-1,1.5-1c0.3,0,0.6,0.1,0.9,0.3c0.2,0.2,0.4,0.4,0.5,0.6c0.1,0.2,0.1,0.6,0.1,1.2V55.8z"/>
		<path class="st3" d="M66.1,49.4v6.3h-0.7V55c-0.3,0.6-0.8,0.9-1.5,0.9c-0.5,0-1-0.2-1.4-0.7c-0.4-0.5-0.5-1-0.5-1.7
			c0-0.7,0.2-1.3,0.5-1.8s0.8-0.7,1.4-0.7c0.6,0,1,0.3,1.4,0.8v-2.3H66.1z M65.3,52.9c0-0.4-0.1-0.7-0.4-1c-0.3-0.2-0.5-0.4-0.9-0.4
			c-0.4,0-0.7,0.2-0.9,0.5c-0.2,0.3-0.4,0.8-0.4,1.4c0,0.6,0.1,1.1,0.3,1.4s0.5,0.5,0.9,0.5c0.3,0,0.6-0.1,0.9-0.4
			c0.3-0.3,0.4-0.6,0.4-1V52.9z"/>
		<path class="st3" d="M70.6,54.4l0.7,0.1c-0.1,0.4-0.4,0.7-0.7,1c-0.4,0.3-0.8,0.4-1.3,0.4c-0.6,0-1.2-0.2-1.6-0.7
			c-0.4-0.5-0.6-1-0.6-1.8c0-0.7,0.2-1.3,0.6-1.8c0.4-0.5,0.9-0.7,1.5-0.7c0.6,0,1.1,0.2,1.5,0.6c0.4,0.4,0.6,1.1,0.6,1.9H68
			c0,0.7,0.1,1.2,0.4,1.4c0.3,0.2,0.6,0.4,0.9,0.4C69.9,55.3,70.4,55,70.6,54.4z M70.6,52.9c0-0.3,0-0.5-0.1-0.7
			c-0.1-0.2-0.2-0.4-0.4-0.5c-0.2-0.1-0.4-0.2-0.7-0.2c-0.4,0-0.7,0.1-0.9,0.4s-0.4,0.6-0.4,1H70.6z"/>
		<path class="st3" d="M21.5,65.8h-0.7v-4.7h0.6v1.1c0.2-0.5,0.5-0.9,0.7-1c0.2-0.2,0.5-0.2,0.7-0.2c0.1,0,0.2,0,0.3,0v0.7h-0.1
			c-0.4,0-0.7,0.1-1,0.4c-0.3,0.3-0.4,0.7-0.4,1.2V65.8z"/>
		<path class="st3" d="M27,64.4l0.7,0.1c-0.1,0.4-0.4,0.7-0.7,1c-0.4,0.3-0.8,0.4-1.3,0.4c-0.6,0-1.2-0.2-1.6-0.7
			c-0.4-0.5-0.6-1-0.6-1.8c0-0.7,0.2-1.3,0.6-1.8c0.4-0.5,0.9-0.7,1.5-0.7c0.6,0,1.1,0.2,1.5,0.6c0.4,0.4,0.6,1.1,0.6,1.9h-3.4
			c0,0.7,0.1,1.2,0.4,1.4c0.3,0.2,0.6,0.4,0.9,0.4C26.3,65.3,26.8,65,27,64.4z M27,62.9c0-0.3,0-0.5-0.1-0.7
			c-0.1-0.2-0.2-0.4-0.4-0.5c-0.2-0.1-0.4-0.2-0.7-0.2c-0.4,0-0.7,0.1-0.9,0.4s-0.4,0.6-0.4,1H27z"/>
		<path class="st3" d="M30.8,61.1v0.6h-1.1v4.1H29v-4.1h-0.8v-0.6H29c0-0.8,0.2-1.2,0.4-1.5c0.3-0.2,0.6-0.3,1-0.3
			c0.2,0,0.4,0,0.7,0.1v0.6c-0.2,0-0.3-0.1-0.5-0.1c-0.3,0-0.6,0.1-0.7,0.2s-0.2,0.4-0.2,0.8v0.2H30.8z"/>
		<path class="st3" d="M34.6,64.4l0.7,0.1c-0.1,0.4-0.4,0.7-0.7,1c-0.4,0.3-0.8,0.4-1.3,0.4c-0.6,0-1.2-0.2-1.6-0.7
			c-0.4-0.5-0.6-1-0.6-1.8c0-0.7,0.2-1.3,0.6-1.8c0.4-0.5,0.9-0.7,1.5-0.7c0.6,0,1.1,0.2,1.5,0.6c0.4,0.4,0.6,1.1,0.6,1.9h-3.4
			c0,0.7,0.1,1.2,0.4,1.4c0.3,0.2,0.6,0.4,0.9,0.4C33.9,65.3,34.3,65,34.6,64.4z M34.5,62.9c0-0.3,0-0.5-0.1-0.7
			c-0.1-0.2-0.2-0.4-0.4-0.5c-0.2-0.1-0.4-0.2-0.7-0.2c-0.4,0-0.7,0.1-0.9,0.4s-0.4,0.6-0.4,1H34.5z"/>
		<path class="st3" d="M37.1,65.8h-0.7v-4.7h0.6v1.1c0.2-0.5,0.5-0.9,0.7-1c0.2-0.2,0.5-0.2,0.7-0.2c0.1,0,0.2,0,0.3,0v0.7h-0.1
			c-0.4,0-0.7,0.1-1,0.4c-0.3,0.3-0.4,0.7-0.4,1.2V65.8z"/>
		<path class="st3" d="M42.6,64.4l0.7,0.1c-0.1,0.4-0.4,0.7-0.7,1c-0.4,0.3-0.8,0.4-1.3,0.4c-0.6,0-1.2-0.2-1.6-0.7
			c-0.4-0.5-0.6-1-0.6-1.8c0-0.7,0.2-1.3,0.6-1.8c0.4-0.5,0.9-0.7,1.5-0.7c0.6,0,1.1,0.2,1.5,0.6c0.4,0.4,0.6,1.1,0.6,1.9H40
			c0,0.7,0.1,1.2,0.4,1.4c0.3,0.2,0.6,0.4,0.9,0.4C42,65.3,42.4,65,42.6,64.4z M42.6,62.9c0-0.3,0-0.5-0.1-0.7
			c-0.1-0.2-0.2-0.4-0.4-0.5c-0.2-0.1-0.4-0.2-0.7-0.2c-0.4,0-0.7,0.1-0.9,0.4s-0.4,0.6-0.4,1H42.6z"/>
		<path class="st3" d="M48.2,65.8h-0.7v-3c0-0.4-0.1-0.7-0.3-0.9c-0.2-0.2-0.4-0.3-0.7-0.3c-0.4,0-0.7,0.1-0.9,0.4s-0.4,0.7-0.4,1.2
			v2.6h-0.7v-4.7h0.7v0.9c0.4-0.7,0.9-1,1.5-1c0.3,0,0.6,0.1,0.9,0.3c0.2,0.2,0.4,0.4,0.5,0.6c0.1,0.2,0.1,0.6,0.1,1.2V65.8z"/>
		<path class="st3" d="M52.4,64.1l0.7,0.1c-0.1,0.5-0.3,0.9-0.6,1.2c-0.3,0.3-0.7,0.4-1.2,0.4c-0.6,0-1.1-0.2-1.5-0.7
			s-0.5-1.1-0.5-1.7c0-0.7,0.2-1.3,0.5-1.8c0.4-0.5,0.8-0.7,1.5-0.7c0.5,0,0.9,0.2,1.2,0.5c0.3,0.3,0.5,0.7,0.6,1.2l-0.7,0.1
			c-0.1-0.8-0.5-1.2-1.1-1.2c-0.4,0-0.7,0.2-0.9,0.5c-0.2,0.3-0.3,0.8-0.3,1.3c0,0.6,0.1,1.1,0.3,1.4s0.5,0.5,0.9,0.5
			C51.9,65.3,52.2,64.9,52.4,64.1z"/>
		<path class="st3" d="M54.8,59.4v0.8H54v-0.8H54.8z M54.8,61.1v4.7h-0.7v-4.7H54.8z"/>
		<path class="st3" d="M59.9,65.8h-0.7c0-0.1-0.1-0.4-0.1-0.8c-0.3,0.6-0.9,1-1.6,1c-0.5,0-0.9-0.1-1.2-0.4c-0.3-0.3-0.4-0.6-0.4-1
			c0-0.5,0.2-0.9,0.6-1.2c0.4-0.3,1.1-0.5,2-0.5c0.1,0,0.3,0,0.6,0c0-0.4,0-0.6-0.1-0.8c-0.1-0.2-0.2-0.3-0.4-0.4s-0.4-0.1-0.7-0.1
			c-0.7,0-1.2,0.3-1.3,0.8L56,62.2c0.2-0.9,0.9-1.3,2.1-1.3c0.6,0,1.1,0.1,1.4,0.4s0.4,0.8,0.4,1.5v2C59.8,65.2,59.8,65.5,59.9,65.8
			z M59.1,63.4c-0.3,0-0.5,0-0.7,0c-0.6,0-1,0.1-1.3,0.3c-0.3,0.2-0.5,0.5-0.5,0.8c0,0.2,0.1,0.4,0.3,0.6s0.4,0.2,0.7,0.2
			c0.4,0,0.8-0.2,1.1-0.5c0.3-0.3,0.4-0.7,0.4-1.1C59.1,63.6,59.1,63.5,59.1,63.4z"/>
		<path class="st3" d="M60.6,64.5l0.7-0.1c0.2,0.6,0.6,0.9,1.5,0.9c0.3,0,0.6-0.1,0.8-0.2s0.3-0.3,0.3-0.6c0-0.4-0.3-0.6-0.8-0.7
			l-1-0.2c-0.4-0.1-0.7-0.2-0.9-0.4c-0.2-0.2-0.3-0.5-0.3-0.9c0-0.4,0.2-0.7,0.5-1c0.3-0.3,0.7-0.4,1.3-0.4c1,0,1.6,0.4,1.9,1.2
			l-0.7,0.1c-0.2-0.5-0.6-0.7-1.2-0.7c-0.3,0-0.5,0.1-0.7,0.2c-0.2,0.1-0.3,0.3-0.3,0.5c0,0.3,0.2,0.6,0.7,0.7l0.9,0.2
			c1,0.2,1.4,0.6,1.4,1.4c0,0.4-0.2,0.8-0.5,1c-0.4,0.3-0.8,0.4-1.4,0.4C61.6,65.9,60.9,65.4,60.6,64.5z"/>
	</g>
</g>
</svg>
